<svg width="92" height="92" viewBox="0 0 92 92" fill="none" xmlns="http://www.w3.org/2000/svg">
<path d="M46.0008 29.8281C48.3058 29.8281 50.4903 30.3293 52.4766 31.202L61.7447 15.6909L59.707 2.09803C55.3769 0.737977 50.7738 0 46.0008 0C41.227 0 36.6238 0.738336 32.2933 2.09875L30.2564 15.6909L39.5252 31.2024C41.5113 30.3296 43.6954 29.8281 46.0008 29.8281Z" fill="#575F64"/>
<path d="M52.4761 60.7976C50.4898 61.6704 48.305 62.1719 46 62.1719C43.6946 62.1719 41.5105 61.6702 39.5242 60.7973L30.2554 76.3088L32.2924 89.9013C36.623 91.2617 41.2262 92 46 92C50.7737 92 55.377 91.2617 59.7075 89.9013L61.7447 76.3088L52.4761 60.7976Z" fill="#575F64"/>
<path d="M61.7448 76.3088L52.4759 60.7976C50.4899 61.6703 48.305 62.1719 46 62.1719V92C50.7738 92 55.377 91.2616 59.7075 89.9012L61.7448 76.3088Z" fill="#474F54"/>
<path d="M61.7439 15.6909L59.7062 2.09803C55.3761 0.737977 50.773 0 46 0V29.8281C48.305 29.8281 50.4895 30.3293 52.4758 31.202L61.7439 15.6909Z" fill="#474F54"/>
<path d="M29.8281 46C29.8281 39.3877 33.8267 33.7063 39.5242 31.2024L32.2925 2.09875C13.7033 7.93986 0 25.5077 0 46C0 66.4923 13.7033 84.0602 32.2925 89.9013L39.5244 60.7973C33.8267 58.2931 29.8281 52.6123 29.8281 46Z" fill="#474F54"/>
<path d="M92 46C92 25.5072 78.2963 7.93859 59.7062 2.09821L52.4757 31.2022C58.1736 33.706 62.1719 39.3873 62.1719 46C62.1719 52.6127 58.174 58.2937 52.4761 60.7976L59.7076 89.9012C78.2967 84.0601 92 66.4923 92 46V46Z" fill="#32393F"/>
<path d="M46 27.1328C35.5977 27.1328 27.1328 35.5977 27.1328 46C27.1328 56.4023 35.5977 64.8672 46 64.8672C56.4023 64.8672 64.8672 56.4023 64.8672 46C64.8672 35.5977 56.4023 27.1328 46 27.1328ZM46 54.0859C41.5412 54.0859 37.9141 50.4588 37.9141 46C37.9141 41.5412 41.5412 37.9141 46 37.9141C50.4588 37.9141 54.0859 41.5412 54.0859 46C54.0859 50.4588 50.4588 54.0859 46 54.0859Z" fill="#FFF5F9"/>
<path d="M64.8672 46C64.8672 35.5977 56.4023 27.1328 46 27.1328V37.9141C50.4588 37.9141 54.0859 41.5412 54.0859 46C54.0859 50.4588 50.4588 54.0859 46 54.0859V64.8672C56.4023 64.8672 64.8672 56.4023 64.8672 46Z" fill="white"/>
</svg>
